<svg xmlns="http://www.w3.org/2000/svg" width="22.219" height="24.688" viewBox="0 0 22.219 24.688"><defs><style>.a{fill:#909090;}</style></defs><path class="a" d="M22.75,3.469h-5.16a3.689,3.689,0,0,0-6.962,0H5.469A2.476,2.476,0,0,0,3,5.938V23.219a2.476,2.476,0,0,0,2.469,2.469H22.75a2.476,2.476,0,0,0,2.469-2.469V5.938A2.476,2.476,0,0,0,22.75,3.469Zm-8.641,0A1.234,1.234,0,1,1,12.875,4.7,1.238,1.238,0,0,1,14.11,3.469ZM16.578,20.75H7.938V18.282h8.641Zm3.7-4.938H7.938V13.344H20.282Zm0-4.938H7.938V8.406H20.282Z" transform="translate(-3 -1)"/></svg>