<svg xmlns="http://www.w3.org/2000/svg" width="18" height="11.455" viewBox="0 0 18 11.455"><defs><style>.a{fill:#c1c5ca;}</style></defs><path class="a" d="M13.273,9.909a2.455,2.455,0,1,0-2.455-2.455A2.444,2.444,0,0,0,13.273,9.909Zm-6.545,0A2.455,2.455,0,1,0,4.273,7.455,2.444,2.444,0,0,0,6.727,9.909Zm0,1.636C4.821,11.545,1,12.5,1,14.409v2.045H12.455V14.409C12.455,12.5,8.634,11.545,6.727,11.545Zm6.545,0c-.237,0-.507.016-.794.041a3.453,3.453,0,0,1,1.612,2.823v2.045H19V14.409C19,12.5,15.179,11.545,13.273,11.545Z" transform="translate(-1 -5)"/></svg>